<svg xmlns="http://www.w3.org/2000/svg" viewBox="0 0 34 34" role="img" aria-label="Safari"><defs><linearGradient id="a" x1="0" y1="0" x2="0" y2="1"><stop offset="0" stop-color="#3EE6FE"/><stop offset=".5" stop-color="#16BFFA"/><stop offset="1" stop-color="#166FF2"/></linearGradient></defs><circle cx="17" cy="17" r="16.2" fill="#fff"/><circle cx="17" cy="17" r="15" fill="url(#a)"/><line x1="28.40" y1="17.00" x2="31.20" y2="17.00" stroke="#fff" stroke-width="0.9" opacity="0.95"/><line x1="29.44" y1="18.97" x2="31.03" y2="19.22" stroke="#fff" stroke-width="0.6" opacity="0.7"/><line x1="28.98" y1="20.89" x2="30.51" y2="21.39" stroke="#fff" stroke-width="0.6" opacity="0.7"/><line x1="28.23" y1="22.72" x2="29.65" y2="23.45" stroke="#fff" stroke-width="0.6" opacity="0.7"/><line x1="27.19" y1="24.41" x2="28.49" y2="25.35" stroke="#fff" stroke-width="0.6" opacity="0.7"/><line x1="25.06" y1="25.06" x2="27.04" y2="27.04" stroke="#fff" stroke-width="0.9" opacity="0.95"/><line x1="24.41" y1="27.19" x2="25.35" y2="28.49" stroke="#fff" stroke-width="0.6" opacity="0.7"/><line x1="22.72" y1="28.23" x2="23.45" y2="29.65" stroke="#fff" stroke-width="0.6" opacity="0.7"/><line x1="20.89" y1="28.98" x2="21.39" y2="30.51" stroke="#fff" stroke-width="0.6" opacity="0.7"/><line x1="18.97" y1="29.44" x2="19.22" y2="31.03" stroke="#fff" stroke-width="0.6" opacity="0.7"/><line x1="17.00" y1="28.40" x2="17.00" y2="31.20" stroke="#fff" stroke-width="0.9" opacity="0.95"/><line x1="15.03" y1="29.44" x2="14.78" y2="31.03" stroke="#fff" stroke-width="0.6" opacity="0.7"/><line x1="13.11" y1="28.98" x2="12.61" y2="30.51" stroke="#fff" stroke-width="0.6" opacity="0.7"/><line x1="11.28" y1="28.23" x2="10.55" y2="29.65" stroke="#fff" stroke-width="0.6" opacity="0.7"/><line x1="9.59" y1="27.19" x2="8.65" y2="28.49" stroke="#fff" stroke-width="0.6" opacity="0.7"/><line x1="8.94" y1="25.06" x2="6.96" y2="27.04" stroke="#fff" stroke-width="0.9" opacity="0.95"/><line x1="6.81" y1="24.41" x2="5.51" y2="25.35" stroke="#fff" stroke-width="0.6" opacity="0.7"/><line x1="5.77" y1="22.72" x2="4.35" y2="23.45" stroke="#fff" stroke-width="0.6" opacity="0.7"/><line x1="5.02" y1="20.89" x2="3.49" y2="21.39" stroke="#fff" stroke-width="0.6" opacity="0.7"/><line x1="4.56" y1="18.97" x2="2.97" y2="19.22" stroke="#fff" stroke-width="0.6" opacity="0.7"/><line x1="5.60" y1="17.00" x2="2.80" y2="17.00" stroke="#fff" stroke-width="0.9" opacity="0.95"/><line x1="4.56" y1="15.03" x2="2.97" y2="14.78" stroke="#fff" stroke-width="0.6" opacity="0.7"/><line x1="5.02" y1="13.11" x2="3.49" y2="12.61" stroke="#fff" stroke-width="0.6" opacity="0.7"/><line x1="5.77" y1="11.28" x2="4.35" y2="10.55" stroke="#fff" stroke-width="0.6" opacity="0.7"/><line x1="6.81" y1="9.59" x2="5.51" y2="8.65" stroke="#fff" stroke-width="0.6" opacity="0.7"/><line x1="8.94" y1="8.94" x2="6.96" y2="6.96" stroke="#fff" stroke-width="0.9" opacity="0.95"/><line x1="9.59" y1="6.81" x2="8.65" y2="5.51" stroke="#fff" stroke-width="0.6" opacity="0.7"/><line x1="11.28" y1="5.77" x2="10.55" y2="4.35" stroke="#fff" stroke-width="0.6" opacity="0.7"/><line x1="13.11" y1="5.02" x2="12.61" y2="3.49" stroke="#fff" stroke-width="0.6" opacity="0.7"/><line x1="15.03" y1="4.56" x2="14.78" y2="2.97" stroke="#fff" stroke-width="0.6" opacity="0.7"/><line x1="17.00" y1="5.60" x2="17.00" y2="2.80" stroke="#fff" stroke-width="0.9" opacity="0.95"/><line x1="18.97" y1="4.56" x2="19.22" y2="2.97" stroke="#fff" stroke-width="0.6" opacity="0.7"/><line x1="20.89" y1="5.02" x2="21.39" y2="3.49" stroke="#fff" stroke-width="0.6" opacity="0.7"/><line x1="22.72" y1="5.77" x2="23.45" y2="4.35" stroke="#fff" stroke-width="0.6" opacity="0.7"/><line x1="24.41" y1="6.81" x2="25.35" y2="5.51" stroke="#fff" stroke-width="0.6" opacity="0.7"/><line x1="25.06" y1="8.94" x2="27.04" y2="6.96" stroke="#fff" stroke-width="0.9" opacity="0.95"/><line x1="27.19" y1="9.59" x2="28.49" y2="8.65" stroke="#fff" stroke-width="0.6" opacity="0.7"/><line x1="28.23" y1="11.28" x2="29.65" y2="10.55" stroke="#fff" stroke-width="0.6" opacity="0.7"/><line x1="28.98" y1="13.11" x2="30.51" y2="12.61" stroke="#fff" stroke-width="0.6" opacity="0.7"/><line x1="29.44" y1="15.03" x2="31.03" y2="14.78" stroke="#fff" stroke-width="0.6" opacity="0.7"/><g transform="rotate(-45 17 17)"><polygon points="17,6.2 19.4,17 14.6,17" fill="#FF5150"/><polygon points="17,27.8 14.6,17 19.4,17" fill="#F7F7F7"/></g></svg>